<svg xmlns="http://www.w3.org/2000/svg" width="120" height="30" viewBox="0 0 120 30" fill="none">
  <path d="M34.4337 21.7723V19.3801H32.7832V16.8262H29.7573V19.3801H28.2524V21.7723H29.7573V26.185C29.7573 27.5913 30.9062 29.6602 33.4143 29.6602L34.4337 29.6279V26.9609C34.3204 26.977 34.2557 26.977 34.2395 26.977C33.3657 26.977 32.7832 26.2658 32.7832 25.5061V21.7723H34.4337Z" fill="white"/>
  <path d="M27.6697 25.458H19.9189C19.9674 26.5733 20.9707 27.7048 22.3623 27.7048C23.0904 27.7048 24.0128 27.3169 24.5144 26.4279H27.3946C27.071 27.3654 26.3267 28.3352 25.4852 28.9656C24.5791 29.6283 23.5273 29.9516 22.4108 29.9516C20.9221 29.9516 19.6438 29.4182 18.592 28.3675C17.5241 27.3169 17.0225 25.8783 17.0225 24.5044C17.0225 23.1143 17.5079 21.7565 18.5435 20.6897C19.5953 19.6067 20.9383 19.041 22.3784 19.041C23.8024 19.041 25.1778 19.5906 26.2134 20.6897C27.2328 21.7565 27.783 23.1305 27.7344 24.6337C27.7506 24.8761 27.7183 25.2479 27.6697 25.458ZM24.7733 23.4052C24.5629 22.2414 23.5435 21.4009 22.3784 21.4009C21.2781 21.4009 20.194 22.1768 19.9836 23.4052H24.7733Z" fill="white"/>
  <path d="M12.8477 22.0964C12.8477 20.4638 14.1745 19.3809 15.5661 19.3809H15.8574V29.661H12.8638L12.8477 22.0964Z" fill="white"/>
  <path d="M35.6475 22.0964C35.6475 20.4638 36.9743 19.3809 38.3659 19.3809H38.6572V29.661H35.6475V22.0964Z" fill="white"/>
  <path d="M46.6506 29.6611V23.438C46.6506 22.6298 46.0195 21.7893 45.0001 21.7893C43.738 21.7893 43.2849 22.8076 43.2849 23.4865V29.6449H40.2104V19.3971H43.0745V20.4962H43.1231C43.6732 19.7365 44.7412 19.0576 46.0195 19.0576C48.3172 19.0576 49.725 20.9326 49.725 22.743V29.6611H46.6506Z" fill="white"/>
  <path d="M71.2624 19.3966V20.4796H71.23C70.9387 19.9947 70.518 19.6391 69.9517 19.3805C69.4339 19.1542 68.8837 19.041 68.285 19.041C66.7963 19.041 65.5666 19.5744 64.5957 20.6574C63.6572 21.6919 63.2041 22.985 63.2041 24.5205C63.2041 26.0723 63.6572 27.3654 64.5795 28.3999C65.5342 29.4667 66.764 30.0001 68.3012 30.0001C68.9161 30.0001 69.4662 29.8869 69.984 29.6606C70.5827 29.402 71.0035 29.0302 71.2624 28.5292H71.2947V29.6445H74.3206V19.3966H71.2624ZM70.5342 26.3794C70.0649 26.8805 69.4662 27.1229 68.7543 27.1229C68.0585 27.1229 67.4759 26.8643 66.9905 26.3632C66.5213 25.8621 66.2785 25.2641 66.2785 24.5367C66.2785 23.7932 66.5051 23.1628 66.9581 22.6779C67.4274 22.1606 68.0099 21.902 68.7219 21.902C69.4339 21.902 70.0326 22.1445 70.5018 22.6455C70.9711 23.1305 71.2138 23.7608 71.2138 24.5044C71.23 25.2641 70.9873 25.8783 70.5342 26.3794Z" fill="white"/>
  <path d="M104.482 8.46983H111.505V14.6606C114.126 15.0647 116.586 15.889 118.851 17.0851C119.579 15.5334 120 13.8039 120 11.9774C120 5.36638 114.628 0 108.01 0C101.392 0 96.0194 5.36638 96.0194 11.9774C96.0194 13.8039 96.4239 15.5172 97.1521 17.069C99.4013 15.8728 101.877 15.0485 104.498 14.6444V8.46983H104.482Z" fill="white"/>
  <path fill-rule="evenodd" clip-rule="evenodd" d="M107.993 23.9383C112.184 23.9383 115.873 21.7885 118.026 18.5234C115.032 16.9394 111.618 16.0342 107.977 16.0342C104.352 16.0342 100.938 16.9232 97.9608 18.5072C100.113 21.7885 103.802 23.9383 107.993 23.9383Z" fill="white"/>
  <path d="M82.2653 29.6611V23.438C82.2653 22.6298 81.6343 21.7893 80.6148 21.7893C79.3527 21.7893 78.8996 22.8076 78.8996 23.4865V29.6449H75.8252V19.3971H78.6893V20.4962H78.7378C79.288 19.7365 80.3559 19.0576 81.6343 19.0576C83.932 19.0576 85.3398 20.9326 85.3398 22.743V29.6611H82.2653Z" fill="white"/>
  <path d="M6.76375 29.6612C7.54045 29.6612 8.60841 29.2409 9.11003 27.964C10.3883 24.6666 14.2718 14.8228 14.2718 14.8228H11.165L7.45955 24.2463L3.77023 14.8066H0L5.84142 29.6612H6.76375Z" fill="white"/>
  <path d="M59.9192 21.692C61.8933 20.609 61.78 18.7825 61.5697 17.7642C61.3108 16.5034 59.9677 14.8062 56.9256 14.8224H51.2622V29.6607H57.0389C60.7606 29.6607 62.4758 27.4948 62.4273 25.1672C62.3949 24.1166 62.0875 22.3709 59.9192 21.692ZM54.7088 17.5702H56.9418C57.8803 17.5702 58.5599 18.2653 58.5599 19.1058C58.5599 20.0433 57.7185 20.6413 56.9418 20.6413H54.7088V17.5702ZM57.5405 26.9129H54.6926V23.3892H57.4758C58.7379 23.3892 59.2719 24.456 59.2719 25.0864C59.2881 26.2017 58.4305 26.9129 57.5405 26.9129Z" fill="white"/>
  <path d="M92.7994 23.9554L97.136 19.3973H93.2849L89.9839 23.0503V17.4899C89.9839 15.8574 88.657 14.7744 87.2654 14.7744H86.8447V29.6451H89.9839V25.0384L93.0907 29.6451H97.136L92.7994 23.9554Z" fill="white"/>
</svg>
